<svg id="Components" xmlns="http://www.w3.org/2000/svg" width="252.584" height="46.27" viewBox="0 0 252.584 46.27">
  <g id="_8a5407d1-bd92-40d5-b654-a8c032cce154_7">
    <path id="Path_67328" data-name="Path 67328" d="M103.174,1.5a5.113,5.113,0,0,1,0,7.229L99.559,12.34,95.945,8.725A5.112,5.112,0,0,1,103.174,1.5ZM81.168,44.891H91.392L81.756,27.851a17.751,17.751,0,0,0,6.463-4.495,10.9,10.9,0,0,0,2.468-7.491q0-5.817-4-8.96t-11.4-3.143H57.372V44.891H66.89V28.674H72l9.166,16.217ZM66.89,11.517h9.343a5.252,5.252,0,0,1,4,1.322,4.756,4.756,0,0,1,1.233,3.379A4.755,4.755,0,0,1,80.228,19.6a5.253,5.253,0,0,1-4,1.322H66.89v-9.4ZM95.153,44.891h8.814V15.747H95.153V44.89ZM107.08,22.563h4.23V35.842a11.4,11.4,0,0,0,.852,4.7,8.136,8.136,0,0,0,2.263,3.026,8.789,8.789,0,0,0,3.143,1.645,12.591,12.591,0,0,0,3.5.5,17.954,17.954,0,0,0,3.32-.264,13.989,13.989,0,0,0,2.556-.735l-.823-7.344a7.69,7.69,0,0,1-2.761.47,2.977,2.977,0,0,1-2.35-1,4.03,4.03,0,0,1-.881-2.762V22.563h6.052V15.747h-6.052V7.874H111.31v7.873h-4.23v6.816Zm52.645,2.468a10.934,10.934,0,0,0-.764-4.2,9.2,9.2,0,0,0-2.145-3.173,9.3,9.3,0,0,0-3.349-2.027,12.729,12.729,0,0,0-4.318-.705,11.924,11.924,0,0,0-5.816,1.322,13.622,13.622,0,0,0-4.172,3.555V3.761h-8.814V44.89h8.814V30.848a8.2,8.2,0,0,1,1.762-5.523,5.691,5.691,0,0,1,4.525-2.056,5.033,5.033,0,0,1,4.084,1.645,6.638,6.638,0,0,1,1.381,4.407V44.89h8.813V25.031Zm4.642,8.344a15.109,15.109,0,0,0,.852,5.288,11.2,11.2,0,0,0,2.321,3.848,9.933,9.933,0,0,0,3.437,2.38,10.792,10.792,0,0,0,4.2.822,9.908,9.908,0,0,0,5.788-1.439,11.1,11.1,0,0,0,3.261-3.613v4.23h8.813V15.747h-8.813V29.79a9.479,9.479,0,0,1-1.47,5.376,4.943,4.943,0,0,1-4.406,2.2,4.768,4.768,0,0,1-3.849-1.557,6.567,6.567,0,0,1-1.321-4.378V15.747h-8.814V33.374ZM242.043,25.5a11.173,11.173,0,0,0-2.556-7.7,8.839,8.839,0,0,0-6.962-2.879,13,13,0,0,0-5.112.97,9.668,9.668,0,0,0-4.053,3.437,8.974,8.974,0,0,0-3.2-3.2,9.323,9.323,0,0,0-4.847-1.2,12.307,12.307,0,0,0-4.406.852,9.85,9.85,0,0,0-4.113,3.2V15.747h-8.814V44.891h8.814V28.38a5.569,5.569,0,0,1,1.439-4.2,4.526,4.526,0,0,1,3.2-1.381A3.686,3.686,0,0,1,214.6,24.15a5.385,5.385,0,0,1,1,3.29V44.891h8.814V28.38a5.714,5.714,0,0,1,1.381-4.2,4.46,4.46,0,0,1,3.261-1.381,3.983,3.983,0,0,1,3.2,1.146,5.01,5.01,0,0,1,.97,3.32V44.891h8.814V25.5Z" fill="#fff"/>
    <path id="Path_67329" data-name="Path 67329" d="M246.224,41.475h-1.011v-.593h2.659v.593h-1.011V44.89h-.638V41.475Z" fill="#fff"/>
    <path id="Path_67330" data-name="Path 67330" d="M248.322,40.882h.706l1.423,3.19,1.428-3.19h.706V44.89h-.638V42.124h-.028l-1.231,2.766h-.474l-1.225-2.766h-.028V44.89h-.638V40.882Z" fill="#fff"/>
    <g id="_9405365b-015d-4b35-922e-47bfa7ae7390_0">
      <path id="Path_67331" data-name="Path 67331" d="M12.762,0A12.766,12.766,0,0,1,25.525,12.762V25.525H12.762A12.762,12.762,0,0,1,12.762,0Z" fill="#fcd3cd"/>
      <path id="Path_67332" data-name="Path 67332" d="M12.762,0H33.508a12.762,12.762,0,0,1,0,25.524H25.524V12.762A12.766,12.766,0,0,0,12.762,0Z" fill="#f15f48"/>
      <path id="Path_67333" data-name="Path 67333" d="M0,12.762A12.763,12.763,0,0,0,12.762,25.525H25.525v7.983A12.762,12.762,0,0,1,0,33.508Z" fill="#742ba1"/>
    </g>
  </g>
</svg>
